<?xml version="1.0" encoding="utf-8" standalone="no"?>
<!DOCTYPE svg PUBLIC "-//W3C//DTD SVG 1.1//EN"
  "http://www.w3.org/Graphics/SVG/1.1/DTD/svg11.dtd">
<svg xmlns:xlink="http://www.w3.org/1999/xlink" width="360pt" height="288pt" viewBox="0 0 360 288" xmlns="http://www.w3.org/2000/svg" version="1.1">
 <metadata>
  <rdf:RDF xmlns:dc="http://purl.org/dc/elements/1.1/" xmlns:cc="http://creativecommons.org/ns#" xmlns:rdf="http://www.w3.org/1999/02/22-rdf-syntax-ns#">
   <cc:Work>
    <dc:type rdf:resource="http://purl.org/dc/dcmitype/StillImage"/>
    <dc:date>2024-07-28T13:29:36.097283</dc:date>
    <dc:format>image/svg+xml</dc:format>
    <dc:creator>
     <cc:Agent>
      <dc:title>Matplotlib v3.8.2, https://matplotlib.org/</dc:title>
     </cc:Agent>
    </dc:creator>
   </cc:Work>
  </rdf:RDF>
 </metadata>
 <defs>
  <style type="text/css">*{stroke-linejoin: round; stroke-linecap: butt}</style>
 </defs>
 <g id="figure_1">
  <g id="patch_1">
   <path d="M 0 288 
L 360 288 
L 360 0 
L 0 0 
z
" style="fill: #ffffff"/>
  </g>
  <g id="axes_1">
   <g id="patch_2">
    <path d="M 39.570582 252.971574 
L 336.154709 252.971574 
L 336.154709 20.088824 
L 39.570582 20.088824 
z
" style="fill: #ffffff"/>
   </g>
   <g id="patch_3">
    <path d="M 117.247377 174.091933 
L 258.477914 174.091933 
L 258.477914 98.968465 
L 117.247377 98.968465 
L 117.247377 174.091933 
z
" clip-path="url(#p7e4ebe90e3)" style="fill: none; stroke: #1f77b4; stroke-width: 2; stroke-linejoin: miter"/>
   </g>
   <g id="patch_4">
    <path d="M 187.862646 98.968465 
L 46.632109 23.844998 
L 187.862646 174.091933 
L 329.093182 249.2154 
L 187.862646 98.968465 
z
" clip-path="url(#p7e4ebe90e3)" style="fill: none; stroke: #2ca02c; stroke-width: 2; stroke-linejoin: miter"/>
   </g>
   <g id="patch_5">
    <path d="M 258.477914 174.091933 
L 258.477914 136.530199 
L 187.862646 98.968465 
L 117.247377 98.968465 
L 117.247377 136.530199 
L 187.862646 174.091933 
L 258.477914 174.091933 
z
" clip-path="url(#p7e4ebe90e3)" style="fill: none; stroke: #d62728; stroke-width: 2; stroke-linejoin: miter"/>
   </g>
   <g id="PathCollection_1">
    <defs>
     <path id="m9ef3bfbc22" d="M 0 2.738613 
C 0.726289 2.738613 1.422928 2.450055 1.936492 1.936492 
C 2.450055 1.422928 2.738613 0.726289 2.738613 0 
C 2.738613 -0.726289 2.450055 -1.422928 1.936492 -1.936492 
C 1.422928 -2.450055 0.726289 -2.738613 0 -2.738613 
C -0.726289 -2.738613 -1.422928 -2.450055 -1.936492 -1.936492 
C -2.450055 -1.422928 -2.738613 -0.726289 -2.738613 0 
C -2.738613 0.726289 -2.450055 1.422928 -1.936492 1.936492 
C -1.422928 2.450055 -0.726289 2.738613 0 2.738613 
z
" style="stroke: #2ca02c"/>
    </defs>
    <g clip-path="url(#p7e4ebe90e3)">
     <use xlink:href="#m9ef3bfbc22" x="46.632109" y="23.844998" style="fill: #2ca02c; stroke: #2ca02c"/>
    </g>
   </g>
   <g id="PathCollection_2">
    <g clip-path="url(#p7e4ebe90e3)">
     <use xlink:href="#m9ef3bfbc22" x="329.093182" y="249.2154" style="fill: #2ca02c; stroke: #2ca02c"/>
    </g>
   </g>
   <g id="PathCollection_3">
    <defs>
     <path id="m4356153bb3" d="M 0 2.738613 
C 0.726289 2.738613 1.422928 2.450055 1.936492 1.936492 
C 2.450055 1.422928 2.738613 0.726289 2.738613 0 
C 2.738613 -0.726289 2.450055 -1.422928 1.936492 -1.936492 
C 1.422928 -2.450055 0.726289 -2.738613 0 -2.738613 
C -0.726289 -2.738613 -1.422928 -2.450055 -1.936492 -1.936492 
C -2.450055 -1.422928 -2.738613 -0.726289 -2.738613 0 
C -2.738613 0.726289 -2.450055 1.422928 -1.936492 1.936492 
C -1.422928 2.450055 -0.726289 2.738613 0 2.738613 
z
" style="stroke: #1f77b4"/>
    </defs>
    <g clip-path="url(#p7e4ebe90e3)">
     <use xlink:href="#m4356153bb3" x="258.477914" y="98.968465" style="fill: #1f77b4; stroke: #1f77b4"/>
    </g>
   </g>
   <g id="PathCollection_4">
    <g clip-path="url(#p7e4ebe90e3)">
     <use xlink:href="#m4356153bb3" x="117.247377" y="174.091933" style="fill: #1f77b4; stroke: #1f77b4"/>
    </g>
   </g>
   <g id="PathCollection_5">
    <defs>
     <path id="mcd7c97c929" d="M 0 2.738613 
C 0.726289 2.738613 1.422928 2.450055 1.936492 1.936492 
C 2.450055 1.422928 2.738613 0.726289 2.738613 0 
C 2.738613 -0.726289 2.450055 -1.422928 1.936492 -1.936492 
C 1.422928 -2.450055 0.726289 -2.738613 0 -2.738613 
C -0.726289 -2.738613 -1.422928 -2.450055 -1.936492 -1.936492 
C -2.450055 -1.422928 -2.738613 -0.726289 -2.738613 0 
C -2.738613 0.726289 -2.450055 1.422928 -1.936492 1.936492 
C -1.422928 2.450055 -0.726289 2.738613 0 2.738613 
z
" style="stroke: #d62728"/>
    </defs>
    <g clip-path="url(#p7e4ebe90e3)">
     <use xlink:href="#mcd7c97c929" x="258.477914" y="174.091933" style="fill: #d62728; stroke: #d62728"/>
    </g>
   </g>
   <g id="PathCollection_6">
    <g clip-path="url(#p7e4ebe90e3)">
     <use xlink:href="#mcd7c97c929" x="117.247377" y="98.968465" style="fill: #d62728; stroke: #d62728"/>
    </g>
   </g>
   <g id="PathCollection_7">
    <g clip-path="url(#p7e4ebe90e3)">
     <use xlink:href="#mcd7c97c929" x="117.247377" y="136.530199" style="fill: #d62728; stroke: #d62728"/>
    </g>
   </g>
   <g id="PathCollection_8">
    <g clip-path="url(#p7e4ebe90e3)">
     <use xlink:href="#mcd7c97c929" x="258.477914" y="136.530199" style="fill: #d62728; stroke: #d62728"/>
    </g>
   </g>
   <g id="PathCollection_9">
    <g clip-path="url(#p7e4ebe90e3)">
     <use xlink:href="#m9ef3bfbc22" x="187.862646" y="98.968465" style="fill: #2ca02c; stroke: #2ca02c"/>
    </g>
   </g>
   <g id="PathCollection_10">
    <g clip-path="url(#p7e4ebe90e3)">
     <use xlink:href="#m9ef3bfbc22" x="187.862646" y="174.091933" style="fill: #2ca02c; stroke: #2ca02c"/>
    </g>
   </g>
   <g id="matplotlib.axis_1">
    <g id="xtick_1">
     <g id="line2d_1">
      <defs>
       <path id="m1bc0bef670" d="M 0 0 
L 0 3.5 
" style="stroke: #000000; stroke-width: 0.8"/>
      </defs>
      <g>
       <use xlink:href="#m1bc0bef670" x="46.632109" y="252.971574" style="stroke: #000000; stroke-width: 0.8"/>
      </g>
     </g>
     <g id="text_1">
      <!-- $\mathdefault{−2}$ -->
      <g transform="translate(37.793747 269.909222) scale(0.14 -0.14)">
       <defs>
        <path id="CMSY10-0" d="M 4218 1472 
C 4326 1472 4442 1472 4442 1600 
C 4442 1728 4326 1728 4218 1728 
L 755 1728 
C 646 1728 531 1728 531 1600 
C 531 1472 646 1472 755 1472 
L 4218 1472 
z
" transform="scale(0.015625)"/>
        <path id="CMR17-32" d="M 2669 989 
L 2554 989 
C 2490 536 2438 459 2413 420 
C 2381 369 1920 369 1830 369 
L 602 369 
C 832 619 1280 1072 1824 1597 
C 2214 1967 2669 2402 2669 3035 
C 2669 3790 2067 4224 1395 4224 
C 691 4224 262 3604 262 3030 
C 262 2780 448 2748 525 2748 
C 589 2748 781 2787 781 3010 
C 781 3207 614 3264 525 3264 
C 486 3264 448 3258 422 3245 
C 544 3790 915 4058 1306 4058 
C 1862 4058 2227 3617 2227 3035 
C 2227 2479 1901 2000 1536 1584 
L 262 146 
L 262 0 
L 2515 0 
L 2669 989 
z
" transform="scale(0.015625)"/>
       </defs>
       <use xlink:href="#CMSY10-0" transform="scale(0.996264)"/>
       <use xlink:href="#CMR17-32" transform="translate(77.487468 0) scale(0.996264)"/>
      </g>
     </g>
    </g>
    <g id="xtick_2">
     <g id="line2d_2">
      <g>
       <use xlink:href="#m1bc0bef670" x="117.247377" y="252.971574" style="stroke: #000000; stroke-width: 0.8"/>
      </g>
     </g>
     <g id="text_2">
      <!-- $\mathdefault{−1}$ -->
      <g transform="translate(108.409015 269.909222) scale(0.14 -0.14)">
       <defs>
        <path id="CMR17-31" d="M 1702 4058 
C 1702 4192 1696 4192 1606 4192 
C 1357 3916 979 3827 621 3827 
C 602 3827 570 3827 563 3808 
C 557 3795 557 3782 557 3648 
C 755 3648 1088 3686 1344 3839 
L 1344 461 
C 1344 236 1331 160 781 160 
L 589 160 
L 589 0 
C 896 0 1216 0 1523 0 
C 1830 0 2150 0 2458 0 
L 2458 160 
L 2266 160 
C 1715 160 1702 230 1702 458 
L 1702 4058 
z
" transform="scale(0.015625)"/>
       </defs>
       <use xlink:href="#CMSY10-0" transform="scale(0.996264)"/>
       <use xlink:href="#CMR17-31" transform="translate(77.487468 0) scale(0.996264)"/>
      </g>
     </g>
    </g>
    <g id="xtick_3">
     <g id="line2d_3">
      <g>
       <use xlink:href="#m1bc0bef670" x="187.862646" y="252.971574" style="stroke: #000000; stroke-width: 0.8"/>
      </g>
     </g>
     <g id="text_3">
      <!-- $\mathdefault{0}$ -->
      <g transform="translate(184.448401 269.909222) scale(0.14 -0.14)">
       <defs>
        <path id="CMR17-30" d="M 2688 2025 
C 2688 2416 2682 3080 2413 3591 
C 2176 4039 1798 4198 1466 4198 
C 1158 4198 768 4058 525 3597 
C 269 3118 243 2524 243 2025 
C 243 1661 250 1106 448 619 
C 723 -39 1216 -128 1466 -128 
C 1760 -128 2208 -7 2470 600 
C 2662 1042 2688 1559 2688 2025 
z
M 1466 -26 
C 1056 -26 813 325 723 812 
C 653 1188 653 1738 653 2096 
C 653 2588 653 2997 736 3387 
C 858 3929 1216 4096 1466 4096 
C 1728 4096 2067 3923 2189 3400 
C 2272 3036 2278 2607 2278 2096 
C 2278 1680 2278 1169 2202 792 
C 2067 95 1690 -26 1466 -26 
z
" transform="scale(0.015625)"/>
       </defs>
       <use xlink:href="#CMR17-30" transform="scale(0.996264)"/>
      </g>
     </g>
    </g>
    <g id="xtick_4">
     <g id="line2d_4">
      <g>
       <use xlink:href="#m1bc0bef670" x="258.477914" y="252.971574" style="stroke: #000000; stroke-width: 0.8"/>
      </g>
     </g>
     <g id="text_4">
      <!-- $\mathdefault{1}$ -->
      <g transform="translate(255.06367 269.909222) scale(0.14 -0.14)">
       <use xlink:href="#CMR17-31" transform="scale(0.996264)"/>
      </g>
     </g>
    </g>
    <g id="xtick_5">
     <g id="line2d_5">
      <g>
       <use xlink:href="#m1bc0bef670" x="329.093182" y="252.971574" style="stroke: #000000; stroke-width: 0.8"/>
      </g>
     </g>
     <g id="text_5">
      <!-- $\mathdefault{2}$ -->
      <g transform="translate(325.678938 269.909222) scale(0.14 -0.14)">
       <use xlink:href="#CMR17-32" transform="scale(0.996264)"/>
      </g>
     </g>
    </g>
    <g id="text_6">
     <!-- $x_1$ -->
     <g transform="translate(181.473648 280.817648) scale(0.14 -0.14)">
      <defs>
       <path id="CMMI12-78" d="M 3034 2606 
C 2829 2567 2752 2414 2752 2293 
C 2752 2139 2874 2088 2963 2088 
C 3155 2088 3290 2254 3290 2427 
C 3290 2695 2982 2816 2714 2816 
C 2323 2816 2106 2433 2048 2312 
C 1901 2816 1504 2816 1389 2816 
C 736 2816 390 1980 390 1839 
C 390 1814 416 1782 461 1782 
C 512 1782 525 1820 538 1846 
C 755 2555 1184 2689 1370 2689 
C 1658 2689 1715 2420 1715 2267 
C 1715 2127 1677 1980 1600 1673 
L 1382 798 
C 1286 415 1101 64 762 64 
C 730 64 570 64 435 147 
C 666 192 717 383 717 460 
C 717 588 621 664 499 664 
C 346 664 179 530 179 326 
C 179 57 480 -64 755 -64 
C 1062 -64 1280 179 1414 441 
C 1517 64 1837 -64 2074 -64 
C 2726 -64 3072 773 3072 913 
C 3072 945 3046 971 3008 971 
C 2950 971 2944 939 2925 888 
C 2752 326 2381 64 2093 64 
C 1869 64 1747 230 1747 492 
C 1747 632 1773 734 1875 1156 
L 2099 2024 
C 2195 2408 2413 2689 2707 2689 
C 2720 2689 2899 2689 3034 2606 
z
" transform="scale(0.015625)"/>
      </defs>
      <use xlink:href="#CMMI12-78" transform="scale(0.996264)"/>
      <use xlink:href="#CMR17-31" transform="translate(55.43406 -14.943915) scale(0.697382)"/>
     </g>
    </g>
   </g>
   <g id="matplotlib.axis_2">
    <g id="ytick_1">
     <g id="line2d_6">
      <defs>
       <path id="me4f6da8cd2" d="M 0 0 
L -3.5 0 
" style="stroke: #000000; stroke-width: 0.8"/>
      </defs>
      <g>
       <use xlink:href="#me4f6da8cd2" x="39.570582" y="249.2154" style="stroke: #000000; stroke-width: 0.8"/>
      </g>
     </g>
     <g id="text_7">
      <!-- $\mathdefault{−3}$ -->
      <g transform="translate(14.893858 254.184225) scale(0.14 -0.14)">
       <defs>
        <path id="CMR17-33" d="M 1414 2157 
C 1984 2157 2234 1662 2234 1090 
C 2234 320 1824 25 1453 25 
C 1114 25 563 194 390 693 
C 422 680 454 680 486 680 
C 640 680 755 782 755 948 
C 755 1133 614 1216 486 1216 
C 378 1216 211 1165 211 926 
C 211 335 787 -128 1466 -128 
C 2176 -128 2720 430 2720 1085 
C 2720 1707 2208 2157 1600 2227 
C 2086 2328 2554 2756 2554 3329 
C 2554 3820 2048 4179 1472 4179 
C 890 4179 378 3829 378 3329 
C 378 3110 544 3072 627 3072 
C 762 3072 877 3155 877 3321 
C 877 3486 762 3569 627 3569 
C 602 3569 570 3569 544 3557 
C 730 3959 1235 4032 1459 4032 
C 1683 4032 2106 3925 2106 3320 
C 2106 3143 2080 2828 1862 2550 
C 1670 2304 1453 2304 1242 2284 
C 1210 2284 1062 2269 1037 2269 
C 992 2263 966 2257 966 2208 
C 966 2163 973 2157 1101 2157 
L 1414 2157 
z
" transform="scale(0.015625)"/>
       </defs>
       <use xlink:href="#CMSY10-0" transform="scale(0.996264)"/>
       <use xlink:href="#CMR17-33" transform="translate(77.487468 0) scale(0.996264)"/>
      </g>
     </g>
    </g>
    <g id="ytick_2">
     <g id="line2d_7">
      <g>
       <use xlink:href="#me4f6da8cd2" x="39.570582" y="211.653667" style="stroke: #000000; stroke-width: 0.8"/>
      </g>
     </g>
     <g id="text_8">
      <!-- $\mathdefault{−2}$ -->
      <g transform="translate(14.893858 216.622491) scale(0.14 -0.14)">
       <use xlink:href="#CMSY10-0" transform="scale(0.996264)"/>
       <use xlink:href="#CMR17-32" transform="translate(77.487468 0) scale(0.996264)"/>
      </g>
     </g>
    </g>
    <g id="ytick_3">
     <g id="line2d_8">
      <g>
       <use xlink:href="#me4f6da8cd2" x="39.570582" y="174.091933" style="stroke: #000000; stroke-width: 0.8"/>
      </g>
     </g>
     <g id="text_9">
      <!-- $\mathdefault{−1}$ -->
      <g transform="translate(14.893858 179.060757) scale(0.14 -0.14)">
       <use xlink:href="#CMSY10-0" transform="scale(0.996264)"/>
       <use xlink:href="#CMR17-31" transform="translate(77.487468 0) scale(0.996264)"/>
      </g>
     </g>
    </g>
    <g id="ytick_4">
     <g id="line2d_9">
      <g>
       <use xlink:href="#me4f6da8cd2" x="39.570582" y="136.530199" style="stroke: #000000; stroke-width: 0.8"/>
      </g>
     </g>
     <g id="text_10">
      <!-- $\mathdefault{0}$ -->
      <g transform="translate(25.742093 141.499023) scale(0.14 -0.14)">
       <use xlink:href="#CMR17-30" transform="scale(0.996264)"/>
      </g>
     </g>
    </g>
    <g id="ytick_5">
     <g id="line2d_10">
      <g>
       <use xlink:href="#me4f6da8cd2" x="39.570582" y="98.968465" style="stroke: #000000; stroke-width: 0.8"/>
      </g>
     </g>
     <g id="text_11">
      <!-- $\mathdefault{1}$ -->
      <g transform="translate(25.742093 103.937289) scale(0.14 -0.14)">
       <use xlink:href="#CMR17-31" transform="scale(0.996264)"/>
      </g>
     </g>
    </g>
    <g id="ytick_6">
     <g id="line2d_11">
      <g>
       <use xlink:href="#me4f6da8cd2" x="39.570582" y="61.406731" style="stroke: #000000; stroke-width: 0.8"/>
      </g>
     </g>
     <g id="text_12">
      <!-- $\mathdefault{2}$ -->
      <g transform="translate(25.742093 66.375556) scale(0.14 -0.14)">
       <use xlink:href="#CMR17-32" transform="scale(0.996264)"/>
      </g>
     </g>
    </g>
    <g id="ytick_7">
     <g id="line2d_12">
      <g>
       <use xlink:href="#me4f6da8cd2" x="39.570582" y="23.844998" style="stroke: #000000; stroke-width: 0.8"/>
      </g>
     </g>
     <g id="text_13">
      <!-- $\mathdefault{3}$ -->
      <g transform="translate(25.742093 28.813822) scale(0.14 -0.14)">
       <use xlink:href="#CMR17-33" transform="scale(0.996264)"/>
      </g>
     </g>
    </g>
    <g id="text_14">
     <!-- $x_2$ -->
     <g transform="translate(8.504861 133.559421) scale(0.14 -0.14)">
      <use xlink:href="#CMMI12-78" transform="scale(0.996264)"/>
      <use xlink:href="#CMR17-32" transform="translate(55.43406 -14.943915) scale(0.697382)"/>
     </g>
    </g>
   </g>
   <g id="line2d_13">
    <path d="M 46.632109 23.844998 
L 69.684589 44.121714 
L 90.037106 61.71242 
L 107.681613 76.661721 
L 122.731062 89.129562 
L 136.076317 99.904774 
L 147.47994 108.840888 
L 157.682779 116.557313 
L 166.413272 122.881922 
L 173.785718 127.952595 
L 179.987509 131.956058 
L 185.217396 135.074041 
L 187.383637 136.273699 
L 187.383637 136.273699 
" clip-path="url(#p7e4ebe90e3)" style="fill: none; stroke-dasharray: 5.55,2.4; stroke-dashoffset: 0; stroke: #2ca02c; stroke-width: 1.5"/>
   </g>
   <g id="line2d_14">
    <path d="M 329.093182 249.2154 
L 306.040702 228.938684 
L 285.688185 211.347978 
L 268.043678 196.398676 
L 252.994229 183.930835 
L 239.648974 173.155624 
L 228.245351 164.21951 
L 218.042512 156.503085 
L 209.312019 150.178476 
L 201.939573 145.107803 
L 195.737782 141.10434 
L 190.507895 137.986357 
L 188.341654 136.786699 
L 188.341654 136.786699 
" clip-path="url(#p7e4ebe90e3)" style="fill: none; stroke-dasharray: 5.55,2.4; stroke-dashoffset: 0; stroke: #2ca02c; stroke-width: 1.5"/>
   </g>
   <g id="line2d_15">
    <path d="M 258.477914 98.968465 
L 261.029636 106.101545 
L 263.072237 112.519755 
L 264.657135 118.284578 
L 265.831303 123.452524 
L 266.637654 128.075508 
L 267.115342 132.201213 
L 267.300091 135.873431 
L 267.224473 139.132375 
L 266.918159 142.014956 
L 266.408163 144.555042 
L 265.719049 146.783704 
L 264.873141 148.729438 
L 263.890727 150.418374 
L 262.790209 151.874458 
L 261.588271 153.119631 
L 260.299981 154.17399 
L 258.588871 155.251484 
L 256.787854 156.092005 
L 254.917813 156.72466 
L 252.608243 157.245897 
L 250.252762 157.544849 
L 247.477251 157.658661 
L 244.305755 157.536263 
L 240.781241 157.146901 
L 236.964614 156.48204 
L 232.93167 155.554602 
L 228.433451 154.294908 
L 223.338635 152.629816 
L 217.681016 150.533885 
L 211.470545 147.983516 
L 204.771182 144.986721 
L 197.39246 141.437418 
L 189.312186 137.29769 
L 189.28364 137.282645 
L 189.28364 137.282645 
" clip-path="url(#p7e4ebe90e3)" style="fill: none; stroke-dasharray: 5.55,2.4; stroke-dashoffset: 0; stroke: #1f77b4; stroke-width: 1.5"/>
   </g>
   <g id="line2d_16">
    <path d="M 117.247377 174.091933 
L 114.695655 166.958853 
L 112.653054 160.540643 
L 111.068156 154.77582 
L 109.893988 149.607873 
L 109.087637 144.98489 
L 108.609949 140.859185 
L 108.4252 137.186967 
L 108.500818 133.928023 
L 108.807132 131.045441 
L 109.317128 128.505355 
L 110.006242 126.276694 
L 110.85215 124.33096 
L 111.834564 122.642024 
L 112.935082 121.18594 
L 114.13702 119.940767 
L 115.42531 118.886408 
L 117.13642 117.808914 
L 118.937437 116.968393 
L 120.807478 116.335738 
L 123.117048 115.814501 
L 125.47253 115.515549 
L 128.24804 115.401737 
L 131.419536 115.524135 
L 134.94405 115.913497 
L 138.760677 116.578358 
L 142.793621 117.505796 
L 147.29184 118.76549 
L 152.386656 120.430582 
L 158.044275 122.526513 
L 164.254746 125.076882 
L 170.954109 128.073677 
L 178.332831 131.62298 
L 186.413105 135.762708 
L 186.441651 135.777753 
L 186.441651 135.777753 
" clip-path="url(#p7e4ebe90e3)" style="fill: none; stroke-dasharray: 5.55,2.4; stroke-dashoffset: 0; stroke: #1f77b4; stroke-width: 1.5"/>
   </g>
   <g id="line2d_17">
    <path d="M 258.477914 174.091933 
L 188.338448 136.783288 
L 188.338448 136.783288 
" clip-path="url(#p7e4ebe90e3)" style="fill: none; stroke-dasharray: 5.55,2.4; stroke-dashoffset: 0; stroke: #d62728; stroke-width: 1.5"/>
   </g>
   <g id="line2d_18">
    <path d="M 117.247377 98.968465 
L 187.386843 136.27711 
L 187.386843 136.27711 
" clip-path="url(#p7e4ebe90e3)" style="fill: none; stroke-dasharray: 5.55,2.4; stroke-dashoffset: 0; stroke: #d62728; stroke-width: 1.5"/>
   </g>
   <g id="line2d_19">
    <path d="M 117.247377 136.530199 
L 117.355944 133.700066 
L 117.664788 131.198495 
L 118.150329 128.995873 
L 118.791128 127.065036 
L 119.567688 125.381071 
L 120.462323 123.921139 
L 121.458981 122.664309 
L 122.543117 121.591401 
L 124.001379 120.482293 
L 125.552909 119.602156 
L 127.177515 118.92318 
L 129.198701 118.339114 
L 131.273257 117.971055 
L 133.731265 117.770663 
L 136.554266 117.788677 
L 139.705858 118.05656 
L 143.132441 118.584618 
L 147.088007 119.441006 
L 151.432758 120.628753 
L 156.266034 122.197679 
L 161.536704 124.152664 
L 167.401782 126.575299 
L 173.894078 129.509039 
L 181.006213 132.976225 
L 186.914248 136.027432 
L 186.914248 136.027432 
" clip-path="url(#p7e4ebe90e3)" style="fill: none; stroke-dasharray: 5.55,2.4; stroke-dashoffset: 0; stroke: #d62728; stroke-width: 1.5"/>
   </g>
   <g id="line2d_20">
    <path d="M 258.477914 136.530199 
L 258.369347 139.360332 
L 258.060503 141.861903 
L 257.574962 144.064525 
L 256.934163 145.995362 
L 256.157603 147.679327 
L 255.262968 149.139259 
L 254.26631 150.396089 
L 253.182174 151.468997 
L 251.723912 152.578105 
L 250.172382 153.458242 
L 248.547776 154.137218 
L 246.52659 154.721283 
L 244.452034 155.089343 
L 241.994026 155.289735 
L 239.171025 155.271721 
L 236.019433 155.003838 
L 232.59285 154.47578 
L 228.637284 153.619392 
L 224.292533 152.431645 
L 219.459257 150.862719 
L 214.188587 148.907734 
L 208.323509 146.485099 
L 201.831213 143.551359 
L 194.719078 140.084173 
L 188.811043 137.032966 
L 188.811043 137.032966 
" clip-path="url(#p7e4ebe90e3)" style="fill: none; stroke-dasharray: 5.55,2.4; stroke-dashoffset: 0; stroke: #d62728; stroke-width: 1.5"/>
   </g>
   <g id="line2d_21">
    <path d="M 187.862646 98.968465 
L 192.87439 107.188054 
L 196.759797 113.987364 
L 199.715028 119.592153 
L 201.904957 124.193576 
L 203.467989 127.953425 
L 204.520116 131.008527 
L 205.158391 133.474524 
L 205.463864 135.449082 
L 205.504071 137.014615 
L 205.335157 138.240601 
L 205.003661 139.185551 
L 204.484007 139.973671 
L 203.851654 140.526484 
L 203.059946 140.922628 
L 202.037435 141.16636 
L 200.805611 141.220258 
L 199.2412 141.051586 
L 197.296467 140.600823 
L 194.942766 139.816283 
L 192.049146 138.606618 
L 188.544754 136.889453 
L 188.335242 136.779878 
L 188.335242 136.779878 
" clip-path="url(#p7e4ebe90e3)" style="fill: none; stroke-dasharray: 5.55,2.4; stroke-dashoffset: 0; stroke: #2ca02c; stroke-width: 1.5"/>
   </g>
   <g id="line2d_22">
    <path d="M 187.862646 174.091933 
L 182.850901 165.872344 
L 178.965494 159.073034 
L 176.010263 153.468245 
L 173.820334 148.866822 
L 172.257303 145.106972 
L 171.205175 142.051871 
L 170.566901 139.585874 
L 170.261427 137.611315 
L 170.22122 136.045783 
L 170.390134 134.819797 
L 170.72163 133.874846 
L 171.241284 133.086727 
L 171.873637 132.533914 
L 172.665345 132.13777 
L 173.687856 131.894038 
L 174.91968 131.84014 
L 176.484091 132.008812 
L 178.428824 132.459575 
L 180.782525 133.244115 
L 183.676145 134.453779 
L 187.180537 136.170945 
L 187.390049 136.28052 
L 187.390049 136.28052 
" clip-path="url(#p7e4ebe90e3)" style="fill: none; stroke-dasharray: 5.55,2.4; stroke-dashoffset: 0; stroke: #2ca02c; stroke-width: 1.5"/>
   </g>
   <g id="patch_6">
    <path d="M 39.570582 252.971574 
L 39.570582 20.088824 
" style="fill: none; stroke: #000000; stroke-width: 0.8; stroke-linejoin: miter; stroke-linecap: square"/>
   </g>
   <g id="patch_7">
    <path d="M 336.154709 252.971574 
L 336.154709 20.088824 
" style="fill: none; stroke: #000000; stroke-width: 0.8; stroke-linejoin: miter; stroke-linecap: square"/>
   </g>
   <g id="patch_8">
    <path d="M 39.570582 252.971574 
L 336.154709 252.971574 
" style="fill: none; stroke: #000000; stroke-width: 0.8; stroke-linejoin: miter; stroke-linecap: square"/>
   </g>
   <g id="patch_9">
    <path d="M 39.570582 20.088824 
L 336.154709 20.088824 
" style="fill: none; stroke: #000000; stroke-width: 0.8; stroke-linejoin: miter; stroke-linecap: square"/>
   </g>
  </g>
 </g>
 <defs>
  <clipPath id="p7e4ebe90e3">
   <rect x="39.570582" y="20.088824" width="296.584127" height="232.88275"/>
  </clipPath>
 </defs>
</svg>
